<?xml version="1.0" encoding="UTF-8" standalone="no"?>
<svg
   width="48"
   height="48"
   viewBox="0 0 48 48"
   fill="none"
   version="1.1"
   id="svg834"
   sodipodi:docname="yeeeee.svg"
   inkscape:version="1.1 (c68e22c387, 2021-05-23)"
   inkscape:export-filename="C:\Users\enhan\bitmap.png"
   inkscape:export-xdpi="192"
   inkscape:export-ydpi="192"
   xmlns:inkscape="http://www.inkscape.org/namespaces/inkscape"
   xmlns:sodipodi="http://sodipodi.sourceforge.net/DTD/sodipodi-0.dtd"
   xmlns="http://www.w3.org/2000/svg"
   xmlns:svg="http://www.w3.org/2000/svg">
  <defs
     id="defs838" />
  <sodipodi:namedview
     id="namedview836"
     pagecolor="#505050"
     bordercolor="#eeeeee"
     borderopacity="1"
     inkscape:pageshadow="0"
     inkscape:pageopacity="0"
     inkscape:pagecheckerboard="0"
     showgrid="false"
     inkscape:zoom="8"
     inkscape:cx="-4.0625"
     inkscape:cy="4.3125"
     inkscape:window-width="1920"
     inkscape:window-height="1057"
     inkscape:window-x="-8"
     inkscape:window-y="-8"
     inkscape:window-maximized="1"
     inkscape:current-layer="svg834" />
  <path
     fill-rule="evenodd"
     clip-rule="evenodd"
     d="m 6.5888773,20.164121 c -2.1185035,2.118456 -2.1185027,5.553302 0,7.671758 L 7.476301,28.723312 14.72093,26.03247 v -4.97093 c 0,-1.512666 0.795261,-2.929182 2.116777,-3.703321 l 2.694995,-1.578503 -2.318176,-6.2412345 z m 13.8810997,-1.86094 -2.292284,1.342726 c -0.498507,0.291981 -0.8056,0.831581 -0.8056,1.415633 v 3.9862 1.89072 c 0,0.305149 0.08387,0.598191 0.234981,0.85014 0.138214,0.230209 0.332545,0.42613 0.570619,0.565493 l 5.016707,2.938549 c 0.498507,0.291981 1.112693,0.291981 1.6112,0 l 0.401651,-0.235247 2.322772,-1.360576 2.292284,-1.342726 c 0.498507,-0.291981 0.8056,-0.831581 0.8056,-1.415633 v -3.9862 -1.89072 c 0,-0.305149 -0.08386,-0.598191 -0.234981,-0.85014 -0.138214,-0.230209 -0.332545,-0.42613 -0.570619,-0.565493 L 24.8056,16.707358 c -0.498507,-0.291981 -1.112693,-0.291981 -1.6112,0 l -0.401651,0.235247 z M 21.855474,14.41914 19.276688,7.476301 20.164121,6.5888773 c 2.118456,-2.1185027 5.553302,-2.1185035 7.671758,0 l 10.625684,10.6256487 -5.567177,2.067818 c -0.358349,-0.789781 -0.953977,-1.468302 -1.732093,-1.924125 l -5.016707,-2.938461 c -1.325758,-0.776534 -2.964265,-0.776729 -4.290112,-6.18e-4 z m 11.423596,7.54839 7.244656,-2.690842 0.887432,0.887433 c 2.118456,2.118456 2.118456,5.553302 0,7.671758 l -10.625684,10.625684 -2.318176,-6.241279 2.694995,-1.578503 c 1.321516,-0.774139 2.116777,-2.190655 2.116777,-3.703321 z m -7.134544,11.61333 2.578786,6.942866 -0.887433,0.887432 c -2.118456,2.118456 -5.553302,2.118456 -7.671758,0 L 9.5384815,30.785474 15.105614,28.717656 c 0.358349,0.789781 0.953977,1.468302 1.732093,1.924125 l 5.016707,2.938461 c 1.325758,0.776525 2.964265,0.776702 4.290112,6.18e-4 z"
     fill="#000000"
     id="path832"
     style="stroke-width:0.883721;fill:#ffffff;fill-opacity:1"
     inkscape:export-filename="C:\Users\enhan\Downloads\bitmap.png"
     inkscape:export-xdpi="192"
     inkscape:export-ydpi="192" />
</svg>
